<svg width="109" height="96" viewBox="0 0 109 96" fill="none" xmlns="http://www.w3.org/2000/svg">
<path d="M61 1.24402C60.526 1.52902 59.419 2.39202 58.538 3.16202C56.594 4.86202 52.807 8.13702 47.707 12.528C45.608 14.335 43.227 16.393 42.415 17.102C41.603 17.811 38.815 20.226 36.22 22.472L31.502 26.554L3.24 26.693L2.349 27.304C1.859 27.64 1.202 28.36 0.889998 28.904L0.322998 29.893V65.339L0.938998 66.439C1.315 67.11 1.939 67.756 2.539 68.097L3.523 68.654L30.952 68.662L31.884 69.462C32.396 69.902 32.871 70.318 32.939 70.386C33.069 70.518 39.687 76.226 40.928 77.277C41.328 77.615 42.159 78.342 42.774 78.892C43.389 79.442 45.499 81.268 47.462 82.952C49.425 84.635 51.087 86.069 51.155 86.138C51.285 86.27 52.845 87.622 57.676 91.791C61.692 95.257 63.306 95.758 65.551 94.238C67.574 92.868 67.401 97.221 67.401 47.757V3.86802L66.85 2.88802C65.726 0.888024 62.909 0.0970242 61.001 1.24502L61 1.24402ZM76.371 32.464C75.822 32.709 75.193 33.183 74.973 33.52C74.753 33.857 74.371 34.332 74.125 34.577C73.579 35.121 73.071 36.721 73.066 37.911C73.057 40.038 73.621 40.881 78.025 45.318C82.612 49.939 82.484 49.686 80.842 50.915C80.585 51.107 80.198 51.481 79.98 51.745C79.357 52.503 79.109 52.745 78.277 53.402C77.848 53.74 77.496 54.156 77.495 54.325C77.494 54.494 77.41 54.633 77.309 54.635C76.731 54.642 73.825 57.993 73.389 59.155C71.955 62.978 75.008 67.187 79.215 67.187C81.797 67.187 82.305 66.871 86.575 62.611C88.688 60.502 90.546 58.67 90.704 58.539C90.906 58.371 92.181 59.496 95.025 62.351C97.6 64.936 99.399 66.544 99.999 66.795C101.775 67.537 105.802 67.149 105.802 66.236C105.802 66.038 105.869 65.942 105.95 66.023C106.282 66.355 107.772 64.607 108.163 63.426C109.292 60.028 108.679 58.715 103.542 53.52L99.642 49.576L103.471 45.766C108.17 41.091 108.391 40.73 108.374 37.772C108.359 35.16 107.894 34.213 105.926 32.779C104.892 32.025 100.646 31.616 100.264 32.234C100.18 32.369 99.925 32.484 99.696 32.488C99.201 32.498 98.172 33.308 98.172 33.689C98.172 33.837 98.088 33.957 97.986 33.957C97.814 33.957 94.306 37.323 93.082 38.663C92.788 38.985 92.175 39.607 91.72 40.045L90.894 40.84L86.964 36.889C81.876 31.775 79.838 30.924 76.374 32.467L76.371 32.464Z" fill="#868686"/>
</svg>
