<svg width="122" height="96" viewBox="0 0 122 96" fill="none" xmlns="http://www.w3.org/2000/svg">
<path d="M61 1.24402C60.526 1.52902 59.419 2.39202 58.538 3.16202C56.594 4.86202 52.807 8.13702 47.707 12.528C45.608 14.335 43.227 16.393 42.415 17.102C41.603 17.811 38.815 20.226 36.22 22.472L31.502 26.554L3.24 26.693L2.349 27.304C1.859 27.64 1.202 28.36 0.889998 28.904L0.322998 29.893V65.339L0.938998 66.439C1.315 67.11 1.939 67.756 2.539 68.097L3.523 68.654L30.952 68.662L31.884 69.462C32.396 69.902 32.871 70.318 32.939 70.386C33.069 70.518 39.687 76.226 40.928 77.277C41.328 77.615 42.159 78.342 42.774 78.892C43.389 79.442 45.499 81.268 47.462 82.952C49.425 84.635 51.087 86.069 51.155 86.138C51.285 86.27 52.845 87.622 57.676 91.791C61.692 95.257 63.306 95.758 65.551 94.238C67.574 92.868 67.401 97.221 67.401 47.757V3.86802L66.85 2.88802C65.726 0.888024 62.909 0.0970242 61.001 1.24502L61 1.24402ZM99.625 1.77702C97.383 3.28802 97.075 5.98602 98.858 8.50002C102.721 13.947 103.876 15.803 105.8 19.651C116.362 40.781 114.125 67.052 100.171 85.746C97.109 89.848 97.102 92.713 100.15 94.268C103.348 95.899 105.667 94.019 110.662 85.748C126.128 60.138 124.417 27.829 106.33 3.96502C104.243 1.21202 101.697 0.381024 99.625 1.77702V1.77702ZM88.454 13.1C85.625 14.702 85.492 17.146 88.033 20.87C99.067 37.048 99.249 58.276 88.493 74.445C85.748 78.571 85.677 80.871 88.243 82.53C91.646 84.729 94.169 82.826 98.467 74.815C107.038 58.841 107.371 39.228 99.346 23C94.837 13.882 91.857 11.173 88.454 13.1ZM76.272 25.289C73.417 26.694 73.267 29.009 75.722 33.764C76.682 35.623 77.592 37.561 77.745 38.072C80.457 47.131 79.695 55.001 75.296 63.358C73.544 66.687 73.741 68.805 75.935 70.223C78.925 72.156 81.175 70.966 83.645 66.147C89.614 54.498 89.541 41.1 83.445 29.523C81.144 25.153 79.055 23.919 76.273 25.289H76.272Z" fill="#A3FF58"/>
</svg>
