<?xml version="1.0" standalone="no"?>
<!DOCTYPE svg PUBLIC "-//W3C//DTD SVG 20010904//EN"
 "http://www.w3.org/TR/2001/REC-SVG-20010904/DTD/svg10.dtd">
<svg version="1.0" xmlns="http://www.w3.org/2000/svg"
 width="591.000000pt" height="621.000000pt" viewBox="0 0 591.000000 621.000000"
 preserveAspectRatio="xMidYMid meet">

<g transform="translate(0.000000,621.000000) scale(0.100000,-0.100000)"
fill="#000000" stroke="none">
<path d="M3858 4004 c12 -3 22 -9 22 -14 0 -4 24 -11 53 -15 56 -7 401 -171
468 -222 20 -16 54 -41 75 -57 68 -51 215 -208 266 -286 85 -127 206 -393 229
-500 4 -19 14 -60 23 -91 45 -164 66 -472 46 -674 -38 -389 -76 -560 -170
-762 -123 -261 -323 -474 -566 -600 -366 -191 -854 -190 -1209 2 -233 126
-380 277 -513 526 -123 230 -180 439 -184 669 -1 113 -1 114 -8 40 -11 -111
-11 -425 0 -500 20 -146 39 -239 54 -268 9 -17 16 -38 16 -48 0 -16 98 -242
130 -299 39 -70 86 -142 107 -165 13 -14 23 -28 23 -32 0 -9 135 -166 180
-208 114 -108 279 -224 434 -305 106 -57 289 -117 451 -149 l130 -26 880 2
880 3 63 34 c110 60 167 156 167 281 -1 96 -33 169 -106 234 -82 74 -106 79
-406 85 l-262 6 62 69 c254 281 414 647 458 1048 14 129 6 481 -15 598 -74
428 -262 799 -551 1085 -273 271 -642 457 -1025 519 -91 14 -249 30 -202 20z"/>
<path d="M491 3408 c0 -15 -6 -30 -11 -33 -11 -7 -50 -88 -50 -104 0 -6 -4
-11 -8 -11 -12 0 -33 -71 -25 -83 3 -6 1 -7 -4 -4 -6 4 -13 1 -16 -6 -14 -34
-142 -329 -164 -377 -206 -454 -225 -513 -203 -623 42 -201 186 -318 395 -320
84 -1 95 2 167 36 80 38 142 97 199 186 16 25 62 130 104 235 41 105 126 323
190 484 63 161 115 294 115 296 0 2 -87 6 -192 10 -238 9 -233 8 -299 41 -85
44 -148 118 -164 195 -4 19 -11 40 -15 45 -5 6 -10 21 -13 35 l-4 25 -2 -27z"/>
</g>
</svg>
