<svg width="64" height="64" viewBox="0 0 64 64" fill="none" xmlns="http://www.w3.org/2000/svg">
<path d="M2.5 2.49999C1.1 3.79999 0 5.69999 0 6.59999C0 7.49999 5.3 13.6 11.7 20.2L23.4 32L11.7 43.8C4.7 50.9 0 56.5 0 57.7C0 61 2.5 63.3 5.9 63.3C8.7 63.3 10.7 61.7 20.6 51.9L32 40.5L43.4 51.9C53.3 61.7 55.3 63.3 58.1 63.3C61.6 63.3 64 61 64 57.6C64 56.3 59.6 51.1 52.3 43.8L40.5 32L51.8 20.7C61.1 11.3 63 8.99999 63 6.39999C63 2.59999 61.4 0.999987 57.6 0.999987C55 0.999987 52.7 2.89999 43.3 12.2L32 23.4L20.2 11.7C13.7 5.29999 7.5 -1.31503e-05 6.6 -1.31503e-05C5.7 -1.31503e-05 3.8 1.09999 2.5 2.49999Z" fill="white"/>
</svg>
