<svg width="64" height="64" viewBox="0 0 64 64" fill="none" xmlns="http://www.w3.org/2000/svg">
<path d="M29.1 1.4C28.3 2.3 28 6.7 28.2 14.5C28.5 24.4 28.8 26.5 30.3 27.4C31.5 28.2 32.5 28.2 33.8 27.4C35.2 26.5 35.5 24.4 35.8 14.5C36.1 2.4 35.5 -4.17233e-07 32 -4.17233e-07C31 -4.17233e-07 29.7 0.6 29.1 1.4Z" fill="#F28C0F"/>
<path d="M12.1 14.5C3.7 21.6 1 37.3 6.3 47.6C15.2 65 36.7 69.2 51 56.3C60.5 47.8 63.2 34.1 57.7 22.7C53.1 13.3 46.2 9.19998 43.8 14.4C42.9 16.6 43.2 17.4 46.3 21.1C50.9 26.4 52.3 30.8 51.8 37.6C51.4 41.7 50.6 43.9 48.4 46.7C42.9 53.5 40.7 54.5 32 54.5C24.8 54.5 23.9 54.3 20.3 51.4C10.1 43.1 9.1 30.8 18 20.6C20.9 17.4 21.1 16.6 20.2 14.5C18.7 11.3 16 11.3 12.1 14.5Z" fill="#F28C0F"/>
</svg>
