<svg width="64" height="64" viewBox="0 0 64 64" fill="none" xmlns="http://www.w3.org/2000/svg">
<path d="M23.9 5.39996C16.4 8.09996 8 15 8 18.5C8 19.2 9.4 20.3 11.2 20.9C14.1 21.9 14.6 21.8 17.2 19C26 9.29996 41.3 10.3 48.5 20.8C51.8 25.6 51.8 28 48.5 28C47.1 28 46 28.4 46 28.8C46 29.2 48 31.6 50.5 34L55 38.4L59.5 34C64.6 29 64.9 28.3 61.9 27.8C60.5 27.6 59.4 26.2 58.5 23.7C53.5 8.99996 37.4 0.499963 23.9 5.39996Z" fill="white"/>
<path d="M4.2 32.3C1.9 34.6 0 36.9 0 37.3C0 37.7 1.1 38 2.5 38C4.1 38 5 38.6 5 39.5C5 42.6 9 48.8 13.4 52.7C20.5 58.9 30.5 61.4 39 59C44 57.6 51.3 52.8 53.9 49.2L56.1 46.1L52.2 44.9C48.6 43.9 48.2 44 45.1 46.8C37.2 54 26.5 53.6 18.3 45.7C13.2 40.8 12.2 38 15.6 38C16.9 38 18 37.7 18 37.3C18 36.4 9.8 28 9 28C8.7 28 6.5 29.9 4.2 32.3Z" fill="white"/>
</svg>
