<svg width="482" height="400" viewBox="0 0 482 400" fill="none" xmlns="http://www.w3.org/2000/svg">
<path d="M179.3 1.39999C171.3 3.39999 163.2 7.99999 156.9 14.1C151.9 19.1 149.7 22.7 140.1 41.9L129 64H86.2C51 64 42.4 64.3 37.5 65.5C20.3 70 7.00002 83.4 2.50002 100.7C0.200024 109.3 0.200024 354.7 2.50002 363.3C7.00002 380.6 20.3 394 37.5 398.5C42.7 399.8 66.8 400 241 400C415.2 400 439.3 399.8 444.5 398.5C461.7 394 475 380.6 479.5 363.3C481.8 354.7 481.8 109.3 479.5 100.7C475 83.4 461.7 70 444.5 65.5C439.6 64.3 431 64 395.8 64H353L341.9 41.9C332.2 22.6 330.1 19.1 325 14.1C318.6 7.79999 309.5 2.79999 301.2 1.09999C293.3 -0.500006 186.2 -0.200006 179.3 1.39999ZM105.6 98.6C112.4 103.7 112.5 103.9 112.5 128C112.5 152.1 112.4 152.3 105.6 157.4C103 159.4 101.6 159.5 73 159.5C44.4 159.5 43 159.4 40.4 157.4C33.7 152.5 33.5 151.7 33.2 130.7C32.8 108.6 33.1 106.2 36.7 101.9C41.6 96.2 42.7 96 74.2 96.3C101.4 96.5 103 96.6 105.6 98.6ZM266 98.4C317.4 109.4 355.5 147.6 366.6 199.2C369.1 210.8 369.1 237.2 366.6 248.8C355.5 300.6 317.7 338.3 265.8 349.7C254.2 352.2 227.9 352.1 216 349.6C164.6 338.5 126.5 300.4 115.4 248.8C112.9 237.2 112.9 210.8 115.4 199.2C127.4 143.7 170.8 103.7 227 96.6C234 95.7 258.7 96.9 266 98.4Z" fill="white"/>
<path d="M49 128V144H73H97V128V112H73H49V128Z" fill="white"/>
<path d="M225.5 113.1C188.8 118.5 157.4 141.3 140.6 174.7C119.4 217.1 128 269 162 303C205.9 346.8 276.1 346.8 320 303C337.1 285.9 348 264.5 351.5 241C357 205.4 345.5 170.5 320 145C295.2 120.2 259.5 108.2 225.5 113.1ZM257.3 129.5C277.2 133 293.9 141.7 308.6 156.4C335.5 183.4 344 221.4 331 257.3C321.9 282.4 299.4 304.9 274.3 314C252.4 321.9 229.6 321.9 207.7 314C182.6 304.9 160.1 282.4 151 257.3C138 221.4 146.5 183.4 173.4 156.4C196 133.9 226.4 124.1 257.3 129.5Z" fill="white"/>
<path d="M226 145.4C211.9 148.4 199.9 154.2 189.7 162.9C153.8 193.3 151.4 247.3 184.6 280.4C200.2 296 218.4 303.5 241 303.5C263.6 303.5 281.8 296 297.4 280.4C313 264.8 320.5 246.6 320.5 224C320.5 206.6 316.9 194.2 308.1 180.8C296.8 163.5 280.7 152 260 146.3C252.2 144.2 234 143.7 226 145.4Z" fill="white"/>
</svg>
