<svg width="32" height="32" viewBox="0 0 32 32" fill="none" xmlns="http://www.w3.org/2000/svg">
<path d="M13.757 19.868C13.341 19.868 12.925 19.709 12.608 19.392C9.635 16.419 9.635 11.582 12.608 8.60901L18.608 2.60901C20.048 1.16901 21.963 0.376007 24 0.376007C26.037 0.376007 27.951 1.16901 29.392 2.60901C32.365 5.58201 32.365 10.419 29.392 13.392L26.649 16.135C26.014 16.77 24.986 16.77 24.351 16.135C23.716 15.5 23.716 14.472 24.351 13.837L27.094 11.094C28.8 9.38801 28.8 6.61301 27.094 4.90701C26.268 4.08101 25.169 3.62601 24 3.62601C22.831 3.62601 21.733 4.08101 20.906 4.90701L14.906 10.907C13.2 12.613 13.2 15.388 14.906 17.094C15.541 17.729 15.541 18.757 14.906 19.392C14.589 19.709 14.173 19.868 13.757 19.868V19.868Z" fill="white"/>
<path d="M8 31.625C5.963 31.625 4.048 30.832 2.608 29.392C-0.365 26.419 -0.365 21.582 2.608 18.609L5.351 15.866C5.986 15.231 7.015 15.231 7.649 15.866C8.283 16.501 8.284 17.529 7.649 18.164L4.906 20.907C3.2 22.613 3.2 25.388 4.906 27.094C5.732 27.92 6.831 28.375 8 28.375C9.169 28.375 10.267 27.92 11.094 27.094L17.094 21.094C18.8 19.388 18.8 16.613 17.094 14.907C16.459 14.272 16.459 13.244 17.094 12.609C17.729 11.974 18.757 11.974 19.392 12.609C22.365 15.582 22.365 20.419 19.392 23.392L13.392 29.392C11.952 30.832 10.037 31.625 8 31.625V31.625Z" fill="white"/>
</svg>
