<svg width="32" height="32" viewBox="0 0 32 32" fill="none" xmlns="http://www.w3.org/2000/svg">
<g clip-path="url(#clip0_103:5)">
<path d="M30 19.348V22H27.348L24 18.652L20.652 22H18V19.348L21.348 16L18 12.652V10H20.652L24 13.348L27.348 10H30V12.652L26.652 16L30 19.348Z" fill="white"/>
<path d="M13 30C12.74 30 12.484 29.898 12.293 29.707L4.586 22H1C0.448 22 0 21.552 0 21V11C0 10.448 0.448 10 1 10H4.586L12.293 2.29301C12.579 2.00701 13.009 1.92101 13.383 2.07601C13.757 2.23101 14 2.59501 14 3.00001V29C14 29.404 13.756 29.769 13.383 29.924C13.259 29.975 13.129 30 13 30Z" fill="white"/>
</g>
<defs>
<clipPath id="clip0_103:5">
<rect width="32" height="32" fill="white"/>
</clipPath>
</defs>
</svg>
