<svg width="32" height="32" viewBox="0 0 32 32" fill="none" xmlns="http://www.w3.org/2000/svg">
<g clip-path="url(#clip0_105:5)">
<path d="M11.366 22.564L12.657 20.757L11.243 19.343L9.43598 20.634C9.10098 20.447 8.74198 20.297 8.36498 20.19L7.99998 18H5.99998L5.63498 20.19C5.25798 20.297 4.89898 20.446 4.56398 20.634L2.75698 19.343L1.34298 20.757L2.63398 22.564C2.44698 22.899 2.29698 23.258 2.19098 23.635L0.000976562 24V26L2.19098 26.365C2.29798 26.742 2.44698 27.101 2.63498 27.436L1.34398 29.243L2.75798 30.657L4.56498 29.366C4.89998 29.553 5.25898 29.703 5.63598 29.81L6.00098 32H8.00098L8.36598 29.81C8.74298 29.703 9.10198 29.554 9.43698 29.366L11.244 30.657L12.658 29.243L11.367 27.436C11.554 27.101 11.704 26.742 11.811 26.365L14.001 26V24L11.811 23.635C11.704 23.258 11.555 22.899 11.367 22.564H11.366ZM6.99998 27C5.89498 27 4.99998 26.105 4.99998 25C4.99998 23.895 5.89498 23 6.99998 23C8.10498 23 8.99998 23.895 8.99998 25C8.99998 26.105 8.10498 27 6.99998 27ZM32 12V10L29.894 9.617C29.855 9.366 29.806 9.118 29.746 8.874L31.545 7.715L30.78 5.867L28.688 6.319C28.556 6.103 28.415 5.893 28.266 5.69L29.485 3.929L28.071 2.515L26.31 3.734C26.107 3.585 25.897 3.444 25.681 3.312L26.133 1.22L24.285 0.455L23.126 2.254C22.882 2.195 22.634 2.145 22.383 2.106L22 0H20L19.617 2.106C19.366 2.145 19.118 2.194 18.874 2.254L17.715 0.455L15.867 1.22L16.319 3.312C16.103 3.444 15.893 3.585 15.69 3.734L13.929 2.515L12.515 3.929L13.734 5.69C13.585 5.893 13.444 6.103 13.312 6.319L11.22 5.867L10.455 7.715L12.254 8.874C12.195 9.118 12.145 9.366 12.106 9.617L9.99998 10V12L12.106 12.383C12.145 12.634 12.194 12.882 12.254 13.126L10.455 14.285L11.22 16.133L13.312 15.681C13.444 15.897 13.585 16.107 13.734 16.31L12.515 18.071L13.929 19.485L15.69 18.266C15.893 18.415 16.103 18.556 16.319 18.688L15.867 20.78L17.715 21.545L18.874 19.746C19.118 19.805 19.366 19.855 19.617 19.894L20 22H22L22.383 19.894C22.634 19.855 22.882 19.806 23.126 19.746L24.285 21.545L26.133 20.78L25.681 18.688C25.897 18.556 26.107 18.415 26.31 18.266L28.071 19.485L29.485 18.071L28.266 16.31C28.415 16.107 28.556 15.897 28.688 15.681L30.78 16.133L31.545 14.285L29.746 13.126C29.805 12.882 29.855 12.634 29.894 12.383L32 12V12ZM21 15.35C18.598 15.35 16.65 13.402 16.65 11C16.65 8.598 18.598 6.65 21 6.65C23.402 6.65 25.35 8.598 25.35 11C25.35 13.402 23.402 15.35 21 15.35Z" fill="white"/>
</g>
<defs>
<clipPath id="clip0_105:5">
<rect width="32" height="32" fill="white"/>
</clipPath>
</defs>
</svg>
