<svg width="32" height="32" viewBox="0 0 32 32" fill="none" xmlns="http://www.w3.org/2000/svg">
<g clip-path="url(#clip0_103:2)">
<path d="M22.485 25.985C22.101 25.985 21.717 25.839 21.424 25.546C20.838 24.96 20.838 24.011 21.424 23.425C25.518 19.331 25.518 12.67 21.424 8.57599C20.838 7.98999 20.838 7.03999 21.424 6.45499C22.01 5.86999 22.96 5.86899 23.545 6.45499C26.095 9.00499 27.499 12.395 27.499 16.001C27.499 19.607 26.095 22.997 23.545 25.547C23.252 25.84 22.868 25.986 22.484 25.986L22.485 25.985ZM17.157 23.157C16.773 23.157 16.389 23.011 16.096 22.718C15.51 22.132 15.51 21.183 16.096 20.597C18.63 18.063 18.63 13.939 16.096 11.405C15.51 10.819 15.51 9.86899 16.096 9.28399C16.682 8.69899 17.631 8.69799 18.217 9.28399C21.921 12.988 21.921 19.015 18.217 22.719C17.924 23.012 17.54 23.158 17.156 23.158L17.157 23.157Z" fill="white"/>
<path d="M13 30C12.74 30 12.484 29.898 12.293 29.707L4.586 22H1C0.448 22 0 21.552 0 21V11C0 10.448 0.448 10 1 10H4.586L12.293 2.29301C12.579 2.00701 13.009 1.92101 13.383 2.07601C13.757 2.23101 14 2.59501 14 3.00001V29C14 29.404 13.756 29.769 13.383 29.924C13.259 29.975 13.129 30 13 30Z" fill="white"/>
</g>
<defs>
<clipPath id="clip0_103:2">
<rect width="32" height="32" fill="white"/>
</clipPath>
</defs>
</svg>
