<svg width="98" height="126" viewBox="0 0 98 126" fill="none" xmlns="http://www.w3.org/2000/svg">
<g filter="url(#filter0_d_535_322)">
<path d="M45.98 1.87297C45.331 2.54597 40.728 8.14997 35.752 14.326C30.776 20.502 24.072 28.816 20.856 32.802C17.64 36.788 15.008 40.222 15.008 40.432C15.008 40.644 29.7801 40.814 48.159 40.814C78.2381 40.814 81.285 40.749 81.041 40.114C80.893 39.729 77.902 35.906 74.393 31.618C70.884 27.33 65.323 20.478 62.035 16.391L56.057 8.96097V14.49C56.057 19.92 56.3331 21.144 58.1021 23.543C58.1681 23.633 59.16 23.882 60.306 24.096C64.275 24.838 64.943 26.528 62.385 29.36C60.822 31.09 60.2671 33.676 61.1511 35.107C62.2421 36.873 59.1211 38.447 56.7761 37.312C54.5801 36.249 53.599 36.197 52.084 37.063C48.929 38.867 46.972 37.552 47.399 33.916C47.685 31.486 47.6601 31.413 45.9141 29.519C43.4061 26.798 43.847 24.868 47.107 24.291C50.025 23.774 50.315 23.578 51.43 21.376C52.462 19.338 52.5251 18.808 52.5251 11.98V4.74297L51.1641 3.02997C48.9091 0.192973 47.831 -0.0470271 45.981 1.87397L45.98 1.87297ZM53.2771 25.177C52.8411 25.765 51.848 26.57 51.07 26.966C49.167 27.933 49.188 27.893 50.063 28.86C50.487 29.328 50.9351 30.471 51.0601 31.401L51.287 33.09H57.159L57.243 31.579C57.289 30.748 57.7321 29.52 58.2261 28.851L59.125 27.635L57.597 27.131C56.757 26.854 55.619 26.06 55.069 25.367L54.069 24.108L53.2771 25.178V25.177ZM20.916 53.005C17.059 57.768 12.762 63.049 11.366 64.742C7.99705 68.826 7.71305 68.621 16.747 68.621H24.666L24.079 67.489C22.838 65.098 24.221 63.566 28.198 62.925C30.952 62.481 33.105 61.499 33.105 60.685C33.105 60.459 33.701 59.263 34.429 58.028C35.717 55.844 35.753 55.624 35.753 50.064V44.345H27.929L20.917 53.005H20.916ZM39.2831 49.788V55.232L41.1151 58.604C43.0931 62.244 43.497 62.516 47.788 63.096C51.079 63.541 52.137 65.114 50.988 67.848C50.682 68.577 51.71 68.62 69.064 68.62C82.257 68.62 87.42 68.482 87.303 68.134C87.214 67.867 82.894 62.405 77.703 55.996L68.265 44.344H39.281V49.788H39.2831ZM36.7061 61.308C35.7451 63.965 32.075 66.402 29.021 66.411C27.881 66.415 28.068 66.948 29.802 68.629C31.673 70.442 32.355 72.692 31.954 75.719L31.655 77.971L33.593 76.974C36.177 75.644 38.971 75.624 41.432 76.917C43.744 78.132 43.7081 78.154 43.2701 75.762C42.6871 72.583 43.2831 70.88 46.0181 67.909L47.2831 66.535L45.104 66.246C42.313 65.876 39.7351 64.03 38.6511 61.627C37.6471 59.401 37.4091 59.362 36.7051 61.308H36.7061ZM15.669 77.737C13.242 80.78 9.31905 85.682 6.95205 88.629C4.58505 91.576 2.64905 94.14 2.64905 94.325C2.64905 94.51 23.107 94.662 48.111 94.662C73.115 94.662 93.573 94.501 93.573 94.303C93.573 94.106 89.591 89.041 84.724 83.048L75.875 72.151H61.383C44.738 72.151 46.2141 71.667 46.9431 76.883C47.6631 82.036 45.7051 83.154 40.6081 80.501C37.7591 79.018 37.436 79.033 33.892 80.814C29.275 83.134 27.341 81.699 28.187 76.58C28.916 72.167 28.896 72.146 24.12 72.177L20.085 72.203L15.671 77.736L15.669 77.737ZM43.697 109.711C43.697 123.787 43.8361 124.209 48.4761 124.228C49.5161 124.232 50.3211 123.857 51.2351 122.944L52.5251 121.654V98.193H43.697V109.711V109.711Z" fill="#014034"/>
</g>
<defs>
<filter id="filter0_d_535_322" x="-1.35095" y="0.62915" width="98.924" height="131.599" filterUnits="userSpaceOnUse" color-interpolation-filters="sRGB">
<feFlood flood-opacity="0" result="BackgroundImageFix"/>
<feColorMatrix in="SourceAlpha" type="matrix" values="0 0 0 0 0 0 0 0 0 0 0 0 0 0 0 0 0 0 127 0" result="hardAlpha"/>
<feOffset dy="4"/>
<feGaussianBlur stdDeviation="2"/>
<feComposite in2="hardAlpha" operator="out"/>
<feColorMatrix type="matrix" values="0 0 0 0 0 0 0 0 0 0 0 0 0 0 0 0 0 0 0.25 0"/>
<feBlend mode="normal" in2="BackgroundImageFix" result="effect1_dropShadow_535_322"/>
<feBlend mode="normal" in="SourceGraphic" in2="effect1_dropShadow_535_322" result="shape"/>
</filter>
</defs>
</svg>
